<svg width="4096" height="4096" viewBox="0 0 4096 4096" fill="none" xmlns="http://www.w3.org/2000/svg">
<rect width="4096" height="4096" rx="400" fill="#292929"/>
<path d="M1021.44 2386.65L957.277 2747H1114.6L1178.76 2386.65H1401.12V2238.11H1205.13L1250.83 1983.23H1467.92V1832.94H1277.2L1343.12 1467.31H1184.91L1119.88 1832.94H943.215L1008.25 1467.31H851.809L785.891 1832.94H552.98V1983.23H759.523L713.82 2238.11H487.062V2386.65H687.453L623.293 2747H780.617L844.777 2386.65H1021.44ZM871.145 2238.11L915.969 1983.23H1092.63L1047.8 2238.11H871.145ZM2153.47 1552.57H2048.88L2005.81 1796.02H1749.17L1735.11 1883.04H1991.75L1889.8 2478.93C1885.11 2521.71 1887.16 2560.67 1895.95 2595.83C1904.74 2630.4 1919.68 2659.99 1940.77 2684.6C1961.87 2709.21 1988.53 2728.54 2020.75 2742.61C2053.57 2756.08 2091.65 2763.11 2135.01 2763.7C2167.82 2764.87 2201.22 2763.41 2235.21 2759.3C2269.19 2755.2 2301.42 2747 2331.89 2734.7L2322.22 2653.84C2294.68 2658.52 2267.14 2662.92 2239.6 2667.02C2212.06 2670.54 2184.23 2671.71 2156.11 2670.54C2126.22 2669.95 2100.15 2665.26 2077.88 2656.47C2056.2 2647.68 2038.33 2635.09 2024.27 2618.68C2010.79 2602.27 2001.42 2582.35 1996.14 2558.91C1990.87 2535.48 1990.29 2508.82 1994.39 2478.93L2096.34 1883.04H2438.23L2453.18 1796.02H2111.28L2153.47 1552.57ZM3352.3 2500.91C3346.44 2533.13 3333.25 2560.38 3312.75 2582.64C3292.82 2604.91 3268.8 2622.78 3240.68 2636.26C3212.55 2649.73 3182.67 2659.7 3151.03 2666.14C3119.39 2672 3089.5 2674.64 3061.38 2674.05C3029.74 2674.05 2998.98 2670.54 2969.09 2663.5C2939.21 2656.47 2912.55 2645.34 2889.11 2630.11C2865.68 2614.87 2846.93 2594.95 2832.86 2570.34C2818.8 2545.14 2811.48 2514.97 2810.89 2479.81L2708.06 2478.93C2706.89 2528.15 2716.26 2570.63 2736.18 2606.38C2756.69 2642.12 2783.64 2671.41 2817.04 2694.27C2849.86 2718.29 2887.36 2735.87 2929.54 2747C2971.73 2758.13 3015.09 2763.99 3059.62 2764.58C3101.22 2765.16 3144.58 2760.48 3189.7 2750.52C3234.82 2740.55 3276.12 2724.44 3313.62 2702.18C3351.71 2681.08 3383.64 2653.54 3409.43 2619.56C3435.21 2584.99 3450.44 2543.68 3455.13 2495.63C3459.82 2458.72 3454.84 2425.61 3440.19 2396.32C3426.12 2366.43 3405.32 2340.95 3377.79 2319.85C3353.76 2301.69 3327.69 2286.75 3299.56 2275.03C3272.02 2262.72 3244.48 2251.88 3216.95 2242.51C3195.27 2234.89 3172.41 2227.86 3148.39 2221.41C3124.37 2214.97 3100.93 2208.23 3078.08 2201.2C3057.57 2195.34 3036.77 2188.31 3015.68 2180.11C2994.58 2171.9 2975.83 2161.65 2959.43 2149.34C2943.02 2137.04 2930.13 2121.8 2920.75 2103.64C2911.96 2085.48 2909.62 2063.21 2913.72 2036.84C2919 2005.79 2931.01 1979.71 2949.76 1958.62C2969.09 1936.94 2991.95 1919.36 3018.31 1905.89C3044.09 1893 3071.93 1883.62 3101.81 1877.76C3131.69 1871.9 3160.4 1868.97 3187.94 1868.97C3217.24 1869.56 3245.95 1873.66 3274.07 1881.28C3302.79 1888.89 3327.98 1900.61 3349.66 1916.43C3371.34 1932.84 3388.33 1953.05 3400.64 1977.08C3412.94 2001.1 3418.51 2029.52 3417.34 2062.33L3520.17 2063.21C3521.34 2015.16 3512.84 1973.56 3494.68 1938.41C3477.1 1902.66 3453.08 1873.07 3422.61 1849.64C3392.14 1826.2 3356.69 1808.62 3316.26 1796.9C3275.83 1785.18 3233.94 1779.03 3190.58 1778.45C3151.91 1777.86 3112.65 1782.25 3072.8 1791.63C3033.55 1800.42 2996.05 1814.19 2960.3 1832.94C2921.63 1852.86 2887.94 1880.69 2859.23 1916.43C2831.11 1951.59 2815.29 1992.9 2811.77 2040.36C2808.25 2077.27 2813.23 2109.21 2826.71 2136.16C2840.19 2163.11 2858.35 2186.26 2881.2 2205.59C2902.3 2223.17 2926.32 2238.41 2953.27 2251.3C2980.23 2263.6 3007.77 2273.86 3035.89 2282.06C3056.98 2289.09 3079.25 2295.83 3102.69 2302.27C3126.12 2308.13 3148.98 2314.58 3171.24 2321.61C3191.16 2327.47 3212.55 2334.79 3235.4 2343.58C3258.84 2352.37 3279.93 2363.5 3298.68 2376.98C3319.19 2392.21 3334.43 2409.79 3344.39 2429.71C3354.93 2449.64 3357.57 2473.37 3352.3 2500.91Z" fill="white"/>
</svg>
